<svg aria-hidden="true" style="position: absolute; width: 0; height: 0; overflow: hidden;" version="1.1" xmlns="http://www.w3.org/2000/svg" xmlns:xlink="http://www.w3.org/1999/xlink">
<defs>
<symbol id="icon-th-small" viewBox="0 0 24 24">
<title>th-small</title>
<path d="M7.5 19c0 1.381-1.119 2.5-2.5 2.5s-2.5-1.119-2.5-2.5c0-1.381 1.119-2.5 2.5-2.5s2.5 1.119 2.5 2.5z"></path>
<path d="M7.5 12c0 1.381-1.119 2.5-2.5 2.5s-2.5-1.119-2.5-2.5c0-1.381 1.119-2.5 2.5-2.5s2.5 1.119 2.5 2.5z"></path>
<path d="M7.5 5c0 1.381-1.119 2.5-2.5 2.5s-2.5-1.119-2.5-2.5c0-1.381 1.119-2.5 2.5-2.5s2.5 1.119 2.5 2.5z"></path>
<path d="M14.5 19c0 1.381-1.119 2.5-2.5 2.5s-2.5-1.119-2.5-2.5c0-1.381 1.119-2.5 2.5-2.5s2.5 1.119 2.5 2.5z"></path>
<path d="M14.5 12c0 1.381-1.119 2.5-2.5 2.5s-2.5-1.119-2.5-2.5c0-1.381 1.119-2.5 2.5-2.5s2.5 1.119 2.5 2.5z"></path>
<path d="M14.5 5c0 1.381-1.119 2.5-2.5 2.5s-2.5-1.119-2.5-2.5c0-1.381 1.119-2.5 2.5-2.5s2.5 1.119 2.5 2.5z"></path>
<path d="M21.5 19c0 1.381-1.119 2.5-2.5 2.5s-2.5-1.119-2.5-2.5c0-1.381 1.119-2.5 2.5-2.5s2.5 1.119 2.5 2.5z"></path>
<path d="M21.5 12c0 1.381-1.119 2.5-2.5 2.5s-2.5-1.119-2.5-2.5c0-1.381 1.119-2.5 2.5-2.5s2.5 1.119 2.5 2.5z"></path>
<path d="M21.5 5c0 1.381-1.119 2.5-2.5 2.5s-2.5-1.119-2.5-2.5c0-1.381 1.119-2.5 2.5-2.5s2.5 1.119 2.5 2.5z"></path>
</symbol>
<symbol id="icon-chart-pie" viewBox="0 0 24 24">
<title>chart-pie</title>
<path d="M11.614 13.98l4.908 4.922c0.39 0.391 0.99 0.36 1.286-0.106 0.88-1.394 1.393-3.044 1.393-4.815 0-2.131-0.741-4.086-1.972-5.631l-5.615 5.63z"></path>
<path d="M9 14.396v-7.355c-3.391 0.487-6 3.405-6 6.939 0 3.876 3.134 7.020 7 7.020 1.572 0 3.018-0.526 4.186-1.403l-5.186-5.201z"></path>
<path d="M16.331 6.213c0.39-0.391 0.365-0.999-0.089-1.313-1.253-0.868-2.695-1.479-4.251-1.765-0.544-0.1-0.991 0.312-0.991 0.865v7.56l5.331-5.347z"></path>
</symbol>
<symbol id="icon-chart-bar" viewBox="0 0 24 24">
<title>chart-bar</title>
<path d="M14 4c0-1.105-0.896-2-2-2s-2 0.895-2 2v12h4v-12z"></path>
<path d="M19 8c0-1.105-0.896-2-2-2s-2 0.895-2 2v8h4v-8z"></path>
<path d="M9 11c0-1.105-0.896-2-2-2s-2 0.895-2 2v5h4v-5z"></path>
<path d="M19 19h-14c-0.553 0-1 0.447-1 1s0.447 1 1 1h14c0.553 0 1-0.447 1-1s-0.447-1-1-1z"></path>
</symbol>
<symbol id="icon-sort-numerically" viewBox="0 0 24 24">
<title>sort-numerically</title>
<path d="M4 18c-0.552 0-1-0.448-1-1v-6.382l-0.553 0.276c-0.495 0.248-1.095 0.046-1.342-0.447s-0.046-1.094 0.448-1.342l2-1c0.31-0.155 0.678-0.139 0.973 0.044 0.294 0.183 0.474 0.504 0.474 0.851v8c0 0.552-0.448 1-1 1z"></path>
<path d="M13 18h-5c-0.404 0-0.769-0.244-0.924-0.617-0.155-0.374-0.069-0.804 0.217-1.090l4-4c0.254-0.254 0.394-0.591 0.394-0.95s-0.14-0.695-0.394-0.949c-0.508-0.508-1.39-0.508-1.9 0.001-0.253 0.252-0.393 0.589-0.393 0.948 0 0.552-0.448 1-1 1s-1-0.448-1-1c0-0.894 0.348-1.733 0.98-2.364 1.265-1.263 3.464-1.263 4.727 0.001 0.632 0.631 0.979 1.471 0.979 2.363 0 0.893-0.348 1.733-0.979 2.364l-2.293 2.293h2.586c0.552 0 1 0.448 1 1s-0.448 1-1 1z"></path>
<path d="M20.955 12.377c0.338-0.457 0.545-1.016 0.545-1.627 0-1.517-1.234-2.75-2.75-2.75-1.031 0-1.966 0.569-2.44 1.484-0.254 0.49-0.063 1.094 0.428 1.348s1.094 0.062 1.348-0.428c0.128-0.249 0.383-0.404 0.664-0.404 0.414 0 0.75 0.336 0.75 0.75s-0.336 0.75-0.75 0.75c-0.552 0-1 0.448-1 1s0.448 1 1 1c0.689 0 1.25 0.561 1.25 1.25s-0.561 1.25-1.25 1.25-1.25-0.561-1.25-1.25c0-0.552-0.448-1-1-1s-1 0.448-1 1c0 1.792 1.458 3.25 3.25 3.25s3.25-1.458 3.25-3.25c0-0.939-0.406-1.779-1.045-2.373z"></path>
</symbol>
<symbol id="icon-sort-alphabetically" viewBox="0 0 24 24">
<title>sort-alphabetically</title>
<path d="M10.895 16.553l-4-8c-0.339-0.678-1.45-0.678-1.789 0l-4 8c-0.247 0.494-0.047 1.095 0.447 1.342 0.495 0.248 1.095 0.046 1.342-0.447l0.723-1.448h4.764l0.724 1.447c0.175 0.351 0.528 0.553 0.895 0.553 0.15 0 0.303-0.034 0.446-0.105 0.494-0.248 0.695-0.848 0.448-1.342zM4.618 14l1.382-2.764 1.382 2.764h-2.764z"></path>
<path d="M22 18h-6c-0.379 0-0.725-0.214-0.895-0.553s-0.132-0.744 0.095-1.047l4.8-6.4h-4c-0.552 0-1-0.448-1-1s0.448-1 1-1h6c0.379 0 0.725 0.214 0.895 0.553s0.132 0.744-0.095 1.047l-4.8 6.4h4c0.552 0 1 0.448 1 1s-0.448 1-1 1z"></path>
<path d="M14 14h-2c-0.552 0-1-0.448-1-1s0.448-1 1-1h2c0.552 0 1 0.448 1 1s-0.448 1-1 1z"></path>
</symbol>
<symbol id="icon-check" viewBox="0 0 24 24">
<title>check</title>
<path d="M20.7 5.3c-0.4-0.4-1-0.4-1.4 0l-10.3 10.3-4.3-4.3c-0.4-0.4-1-0.4-1.4 0s-0.4 1 0 1.4l5 5c0.2 0.2 0.4 0.3 0.7 0.3s0.5-0.1 0.7-0.3l11-11c0.4-0.4 0.4-1 0-1.4z"></path>
</symbol>
<symbol id="icon-edit" viewBox="0 0 28 28">
<title>edit</title>
<path d="M13.875 18.5l1.813-1.813-2.375-2.375-1.813 1.813v0.875h1.5v1.5h0.875zM20.75 7.25c-0.141-0.141-0.375-0.125-0.516 0.016l-5.469 5.469c-0.141 0.141-0.156 0.375-0.016 0.516s0.375 0.125 0.516-0.016l5.469-5.469c0.141-0.141 0.156-0.375 0.016-0.516zM22 16.531v2.969c0 2.484-2.016 4.5-4.5 4.5h-13c-2.484 0-4.5-2.016-4.5-4.5v-13c0-2.484 2.016-4.5 4.5-4.5h13c0.625 0 1.25 0.125 1.828 0.391 0.141 0.063 0.25 0.203 0.281 0.359 0.031 0.172-0.016 0.328-0.141 0.453l-0.766 0.766c-0.141 0.141-0.328 0.187-0.5 0.125-0.234-0.063-0.469-0.094-0.703-0.094h-13c-1.375 0-2.5 1.125-2.5 2.5v13c0 1.375 1.125 2.5 2.5 2.5h13c1.375 0 2.5-1.125 2.5-2.5v-1.969c0-0.125 0.047-0.25 0.141-0.344l1-1c0.156-0.156 0.359-0.187 0.547-0.109s0.313 0.25 0.313 0.453zM20.5 5l4.5 4.5-10.5 10.5h-4.5v-4.5zM27.438 7.063l-1.437 1.437-4.5-4.5 1.437-1.437c0.578-0.578 1.547-0.578 2.125 0l2.375 2.375c0.578 0.578 0.578 1.547 0 2.125z"></path>
</symbol>
<symbol id="icon-chevron-down" viewBox="0 0 20 20">
<title>chevron-down</title>
<path d="M4.516 7.548c0.436-0.446 1.043-0.481 1.576 0l3.908 3.747 3.908-3.747c0.533-0.481 1.141-0.446 1.574 0 0.436 0.445 0.408 1.197 0 1.615-0.406 0.418-4.695 4.502-4.695 4.502-0.217 0.223-0.502 0.335-0.787 0.335s-0.57-0.112-0.789-0.335c0 0-4.287-4.084-4.695-4.502s-0.436-1.17 0-1.615z"></path>
</symbol>
<symbol id="icon-chevron-up" viewBox="0 0 20 20">
<title>chevron-up</title>
<path d="M15.484 12.452c-0.436 0.446-1.043 0.481-1.576 0l-3.908-3.747-3.908 3.747c-0.533 0.481-1.141 0.446-1.574 0-0.436-0.445-0.408-1.197 0-1.615 0.406-0.418 4.695-4.502 4.695-4.502 0.217-0.223 0.502-0.335 0.787-0.335s0.57 0.112 0.789 0.335c0 0 4.287 4.084 4.695 4.502s0.436 1.17 0 1.615z"></path>
</symbol>
<symbol id="icon-trash" viewBox="0 0 20 20">
<title>trash</title>
<path d="M3.389 7.113l1.101 10.908c0.061 0.461 2.287 1.977 5.51 1.979 3.225-0.002 5.451-1.518 5.511-1.979l1.102-10.908c-1.684 0.942-4.201 1.387-6.613 1.387-2.41 0-4.928-0.445-6.611-1.387zM13.168 1.51l-0.859-0.951c-0.332-0.473-0.692-0.559-1.393-0.559h-1.831c-0.7 0-1.061 0.086-1.392 0.559l-0.859 0.951c-2.57 0.449-4.434 1.64-4.434 2.519v0.17c0 1.547 3.403 2.801 7.6 2.801 4.198 0 7.601-1.254 7.601-2.801v-0.17c0-0.879-1.863-2.070-4.433-2.519zM12.070 4.34l-1.070-1.34h-2l-1.068 1.34h-1.7c0 0 1.862-2.221 2.111-2.522 0.19-0.23 0.384-0.318 0.636-0.318h2.043c0.253 0 0.447 0.088 0.637 0.318 0.248 0.301 2.111 2.522 2.111 2.522h-1.7z"></path>
</symbol>
<symbol id="icon-line-graph" viewBox="0 0 20 20">
<title>line-graph</title>
<path d="M0.69 11.331l1.363 0.338 1.026-1.611-1.95-0.482c-0.488-0.121-0.981 0.174-1.102 0.66-0.121 0.483 0.175 0.973 0.663 1.095zM18.481 11.592l-4.463 4.016-5.247-4.061c-0.1-0.076-0.215-0.133-0.338-0.162l-0.698-0.174-1.027 1.611 1.1 0.273 5.697 4.408c0.166 0.127 0.362 0.189 0.559 0.189 0.219 0 0.438-0.078 0.609-0.232l5.028-4.527c0.372-0.334 0.401-0.906 0.064-1.277s-0.911-0.4-1.284-0.064zM8.684 7.18l4.887 3.129c0.413 0.264 0.961 0.154 1.24-0.246l5.027-7.242c0.286-0.412 0.183-0.977-0.231-1.26-0.414-0.285-0.979-0.182-1.265 0.23l-4.528 6.521-4.916-3.147c-0.204-0.131-0.451-0.174-0.688-0.123-0.236 0.053-0.442 0.197-0.571 0.4l-7.497 11.767c-0.27 0.422-0.144 0.983 0.28 1.25 0.15 0.096 0.319 0.141 0.486 0.141 0.301 0 0.596-0.149 0.768-0.42l7.008-11z"></path>
</symbol>
<symbol id="icon-magnifying-glass" viewBox="0 0 20 20">
<title>magnifying-glass</title>
<path d="M17.545 15.467l-3.779-3.779c0.57-0.935 0.898-2.035 0.898-3.21 0-3.417-2.961-6.377-6.378-6.377s-6.186 2.769-6.186 6.186c0 3.416 2.961 6.377 6.377 6.377 1.137 0 2.2-0.309 3.115-0.844l3.799 3.801c0.372 0.371 0.975 0.371 1.346 0l0.943-0.943c0.371-0.371 0.236-0.84-0.135-1.211zM4.004 8.287c0-2.366 1.917-4.283 4.282-4.283s4.474 2.107 4.474 4.474c0 2.365-1.918 4.283-4.283 4.283s-4.473-2.109-4.473-4.474z"></path>
</symbol>
<symbol id="icon-new-message" viewBox="0 0 20 20">
<title>new-message</title>
<path d="M18.174 1.826c-1.102-1.102-2.082-0.777-2.082-0.777l-8.639 8.632-1.453 4.319 4.317-1.454 8.634-8.638c0 0 0.324-0.98-0.777-2.082zM10.605 11.605l-0.471 0.47-1.473 0.5c-0.104-0.24-0.234-0.477-0.498-0.74s-0.5-0.394-0.74-0.498l0.5-1.473 0.471-0.47c0 0 0.776-0.089 1.537 0.673 0.762 0.761 0.674 1.538 0.674 1.538zM16 17h-13v-13h5l2-2h-7c-1.1 0-2 0.9-2 2v13c0 1.1 0.9 2 2 2h13c1.1 0 2-0.9 2-2v-7l-2 2v5z"></path>
</symbol>
<symbol id="icon-pencil" viewBox="0 0 20 20">
<title>pencil</title>
<path d="M14.69 2.661c-1.894-1.379-3.242-1.349-3.754-1.266-0.144 0.023-0.265 0.106-0.35 0.223l-6.883 9.497c-0.277 0.382-0.437 0.836-0.462 1.307l-0.296 5.624c-0.021 0.405 0.382 0.698 0.76 0.553l5.256-2.010c0.443-0.17 0.828-0.465 1.106-0.849l6.88-9.494c0.089-0.123 0.125-0.273 0.1-0.423-0.084-0.526-0.487-1.802-2.357-3.162zM8.977 15.465l-2.043 0.789c-0.080 0.031-0.169 0.006-0.221-0.062-0.263-0.335-0.576-0.667-1.075-1.030-0.499-0.362-0.911-0.558-1.31-0.706-0.080-0.030-0.131-0.106-0.126-0.192l0.122-2.186 0.549-0.755c0 0 1.229-0.169 2.833 0.998 1.602 1.166 1.821 2.388 1.821 2.388l-0.55 0.756z"></path>
</symbol>
<symbol id="icon-stats-dots" viewBox="0 0 32 32">
<title>stats-dots</title>
<path d="M4 28h28v4h-32v-32h4zM9 26c-1.657 0-3-1.343-3-3s1.343-3 3-3c0.088 0 0.176 0.005 0.262 0.012l3.225-5.375c-0.307-0.471-0.487-1.033-0.487-1.638 0-1.657 1.343-3 3-3s3 1.343 3 3c0 0.604-0.179 1.167-0.487 1.638l3.225 5.375c0.086-0.007 0.174-0.012 0.262-0.012 0.067 0 0.133 0.003 0.198 0.007l5.324-9.316c-0.329-0.482-0.522-1.064-0.522-1.691 0-1.657 1.343-3 3-3s3 1.343 3 3c0 1.657-1.343 3-3 3-0.067 0-0.133-0.003-0.198-0.007l-5.324 9.316c0.329 0.481 0.522 1.064 0.522 1.691 0 1.657-1.343 3-3 3s-3-1.343-3-3c0-0.604 0.179-1.167 0.487-1.638l-3.225-5.375c-0.086 0.007-0.174 0.012-0.262 0.012s-0.176-0.005-0.262-0.012l-3.225 5.375c0.307 0.471 0.487 1.033 0.487 1.637 0 1.657-1.343 3-3 3z"></path>
</symbol>
<symbol id="icon-bin" viewBox="0 0 32 32">
<title>bin</title>
<path d="M4 10v20c0 1.1 0.9 2 2 2h18c1.1 0 2-0.9 2-2v-20h-22zM10 28h-2v-14h2v14zM14 28h-2v-14h2v14zM18 28h-2v-14h2v14zM22 28h-2v-14h2v14z"></path>
<path d="M26.5 4h-6.5v-2.5c0-0.825-0.675-1.5-1.5-1.5h-7c-0.825 0-1.5 0.675-1.5 1.5v2.5h-6.5c-0.825 0-1.5 0.675-1.5 1.5v2.5h26v-2.5c0-0.825-0.675-1.5-1.5-1.5zM18 4h-6v-1.975h6v1.975z"></path>
</symbol>
</defs>
</svg>
